<svg xmlns="http://www.w3.org/2000/svg" viewBox="0 0 8.29 11.99"><title>LOCATION ICON</title><g id="Layer_2" data-name="Layer 2"><g id="Text"><g id="Menu"><g id="Text-2" data-name="Text"><g id="Contact_us" data-name="Contact us"><path d="M4.1,0A4.15,4.15,0,0,1,8.19,3.29,4,4,0,0,1,7.8,6.08C6.94,7.7,6,9.25,5.06,10.83l-.53.91a.42.42,0,0,1-.77,0Q2.34,9.31.92,6.88a6.58,6.58,0,0,1-.79-1.7,4.07,4.07,0,0,1,.62-3.4A4.05,4.05,0,0,1,3.7,0Zm0,.8H3.88A3.26,3.26,0,0,0,1,2.94a3.18,3.18,0,0,0,.2,2.86c.9,1.66,1.89,3.27,2.84,4.9.07.13.09.05.14,0,.58-1,1.18-2,1.76-3C6.4,7,6.84,6.26,7.19,5.51A3.35,3.35,0,0,0,4.12.8Z"/><path d="M4.15,5.94A2,2,0,1,1,6.09,4,2,2,0,0,1,4.15,5.94Zm0-.8A1.15,1.15,0,1,0,3,4,1.15,1.15,0,0,0,4.15,5.14Z"/></g></g></g></g></g></svg>